<svg width="42" height="42" viewBox="0 0 42 42" fill="none" xmlns="http://www.w3.org/2000/svg">
<path d="M7.875 36.75C7.875 36.75 5.25 36.75 5.25 34.125C5.25 31.5 7.875 23.625 21 23.625C34.125 23.625 36.75 31.5 36.75 34.125C36.75 36.75 34.125 36.75 34.125 36.75H7.875ZM21 21C23.0886 21 25.0916 20.1703 26.5685 18.6935C28.0453 17.2166 28.875 15.2136 28.875 13.125C28.875 11.0364 28.0453 9.03338 26.5685 7.55653C25.0916 6.07969 23.0886 5.25 21 5.25C18.9114 5.25 16.9084 6.07969 15.4315 7.55653C13.9547 9.03338 13.125 11.0364 13.125 13.125C13.125 15.2136 13.9547 17.2166 15.4315 18.6935C16.9084 20.1703 18.9114 21 21 21Z" fill="#7B2CBF"/>
</svg>
